<svg id="Layer_1" height="512" viewBox="0 0 128 128" width="512" xmlns="http://www.w3.org/2000/svg" xmlns:xlink="http://www.w3.org/1999/xlink" data-name="Layer 1"><linearGradient id="linear-gradient" gradientUnits="userSpaceOnUse" x1="4.75" x2="123.25" y1="64" y2="64"><stop offset="0" stop-color="#e97b83"/><stop offset="1" stop-color="#23ceb0"/></linearGradient><path d="m121.5 16.442h-35.85v-9.942a1.75 1.75 0 0 0 -1.75-1.75h-39.8a1.751 1.751 0 0 0 -1.75 1.75v9.942h-35.85a1.751 1.751 0 0 0 -1.75 1.75v6a1.75 1.75 0 0 0 1.75 1.75h4.2l11.751 95.771a1.75 1.75 0 0 0 1.737 1.537h79.62a1.752 1.752 0 0 0 1.737-1.537l3.624-29.513a1.751 1.751 0 0 0 -3.475-.427l-3.433 27.978h-76.523l-11.51-93.809h12.584a1.75 1.75 0 1 0 0-3.5h-18.562v-2.5h111.5v2.5h-74.833a1.75 1.75 0 0 0 0 3.5h68.855l-6.963 56.747a1.75 1.75 0 0 0 3.474.426l7.017-57.173h4.2a1.749 1.749 0 0 0 1.75-1.75v-6a1.75 1.75 0 0 0 -1.75-1.75zm-75.65-8.192h36.3v8.192h-36.3zm-7.767 14.192a1.75 1.75 0 0 1 0 3.5h-4.25a1.75 1.75 0 0 1 0-3.5zm47.537 34.776a1.747 1.747 0 0 0 -.514-1.237l-4.25-4.24a1.749 1.749 0 0 0 -2.473 0l-14.383 14.384-14.383-14.382a1.75 1.75 0 0 0 -2.473 0l-4.25 4.24a1.749 1.749 0 0 0 0 2.476l14.391 14.391-14.392 14.382a1.749 1.749 0 0 0 0 2.476l4.25 4.241a1.748 1.748 0 0 0 2.473 0l14.384-14.384 14.383 14.382a1.749 1.749 0 0 0 2.473 0l4.25-4.241a1.749 1.749 0 0 0 0-2.476l-14.381-14.38 14.383-14.393a1.75 1.75 0 0 0 .512-1.239zm-18.608 14.395a1.749 1.749 0 0 0 0 2.474l14.382 14.381-1.773 1.768-14.384-14.383a1.748 1.748 0 0 0 -2.474 0l-14.385 14.383-1.772-1.767 14.394-14.381a1.749 1.749 0 0 0 0-2.475l-14.394-14.392 1.772-1.768 14.385 14.384a1.748 1.748 0 0 0 2.474 0l14.385-14.384 1.778 1.769z" fill="url(#linear-gradient)"/></svg>